Run_40001
nRows=4
nColumns=164

# SIMM Motion File Header:
name Run_40001
datacolumns 164
datarows 4
otherdata 1
range 4.25833300 4.28333300
endheader
time	pelvis_tilt	pelvis_list	pelvis_rotation	pelvis_tx	pelvis_ty	pelvis_tz	hip_flexion_r	hip_adduction_r	hip_rotation_r	knee_angle_r	ankle_angle_r	hip_flexion_l	hip_adduction_l	hip_rotation_l	knee_angle_l	ankle_angle_l	lumbar_extension	lumbar_bending	lumbar_rotation	arm_flex_r	arm_add_r	arm_rot_r	elbow_flex_r	pro_sup_r	arm_flex_l	arm_add_l	arm_rot_l	elbow_flex_l	pro_sup_l	subtalar_angle_r	mtp_angle_r	subtalar_angle_l	mtp_angle_l	wrist_flex_r	wrist_dev_r	wrist_flex_l	wrist_dev_l	LASI_tx	LASI_ty	LASI_tz	RASI_tx	RASI_ty	RASI_tz	LPSI_tx	LPSI_ty	LPSI_tz	RPSI_tx	RPSI_ty	RPSI_tz	RTH1_tx	RTH1_ty	RTH1_tz	RTH2_tx	RTH2_ty	RTH2_tz	RTH3_tx	RTH3_ty	RTH3_tz	LTH1_tx	LTH1_ty	LTH1_tz	LTH2_tx	LTH2_ty	LTH2_tz	LTH3_tx	LTH3_ty	LTH3_tz	RTB1_tx	RTB1_ty	RTB1_tz	RTB2_tx	RTB2_ty	RTB2_tz	RTB3_tx	RTB3_ty	RTB3_tz	LTB1_tx	LTB1_ty	LTB1_tz	LTB2_tx	LTB2_ty	LTB2_tz	LTB3_tx	LTB3_ty	LTB3_tz	RCAL_tx	RCAL_ty	RCAL_tz	RTOE_tx	RTOE_ty	RTOE_tz	RMT5_tx	RMT5_ty	RMT5_tz	LCAL_tx	LCAL_ty	LCAL_tz	LTOE_tx	LTOE_ty	LTOE_tz	LMT5_tx	LMT5_ty	LMT5_tz	LACR_tx	LACR_ty	LACR_tz	RACR_tx	RACR_ty	RACR_tz	CLAV_tx	CLAV_ty	CLAV_tz	C7_tx	C7_ty	C7_tz	RUA1_tx	RUA1_ty	RUA1_tz	RUA2_tx	RUA2_ty	RUA2_tz	RUA3_tx	RUA3_ty	RUA3_tz	RLEL_tx	RLEL_ty	RLEL_tz	RMEL_tx	RMEL_ty	RMEL_tz	LUA1_tx	LUA1_ty	LUA1_tz	LUA2_tx	LUA2_ty	LUA2_tz	LUA3_tx	LUA3_ty	LUA3_tz	LLEL_tx	LLEL_ty	LLEL_tz	LMEL_tx	LMEL_ty	LMEL_tz	RFAsuperior_tx	RFAsuperior_ty	RFAsuperior_tz	RFAradius_tx	RFAradius_ty	RFAradius_tz	RFAulna_tx	RFAulna_ty	RFAulna_tz	LFAsuperior_tx	LFAsuperior_ty	LFAsuperior_tz	LFAradius_tx	LFAradius_ty	LFAradius_tz	LFAulna_tx	LFAulna_ty	LFAulna_tz
      4.25833300	     -9.95460941	      3.33975802	     -0.63500970	      1.12706421	      1.01769061	     -0.30921684	    -12.38227905	     -0.64592166	      5.15715917	    -20.37383466	    -24.35371882	     55.89958259	      3.48512068	     -4.85923217	    -73.93791746	     -8.52828092	      0.22568659	     -2.82573813	     15.52532921	    -23.09537593	    -11.56315013	     -9.39048340	    110.11604339	     81.45293979	    -56.59690979	    -20.13975754	    -11.30060076	    102.74528478	     90.17855766	      0.00000000	      0.00000000	      0.00000000	      0.00000000	      0.00000000	      0.00000000	      0.00000000	      0.00000000	      1.13671422	      1.03354047	     -0.42097552	      1.12697031	      1.01371419	     -0.18952630	      0.97193893	      1.08225009	     -0.36056478	      0.97079887	      1.07872367	     -0.26139687	      1.01249967	      0.87703137	     -0.13271408	      1.00970511	      0.72019210	     -0.16617628	      0.91127226	      0.66568987	     -0.17886718	      1.14119558	      0.91352324	     -0.49263751	      1.25850786	      0.87647346	     -0.46527725	      1.27838741	      0.73658094	     -0.46337843	      0.83548746	      0.43549428	     -0.23621386	      0.75775331	      0.42361179	     -0.17557759	      0.70950501	      0.30393826	     -0.23654538	      1.36237368	      0.53160904	     -0.40647674	      1.27436633	      0.46079576	     -0.44676145	      1.25519403	      0.36201329	     -0.38193656	      0.54150552	      0.29341134	     -0.25255515	      0.63892173	      0.11136084	     -0.29354431	      0.60081773	      0.09257577	     -0.19324312	      1.09391480	      0.30038386	     -0.36152054	      1.27211236	      0.19674301	     -0.32838422	      1.24439128	      0.16181021	     -0.42759147	      1.08026249	      1.52239179	     -0.48088524	      1.15547563	      1.50903770	     -0.13155181	      1.19027010	      1.46408401	     -0.30299524	      1.07506611	      1.54517539	     -0.30674126	      1.13927093	      1.42663566	     -0.08094451	      1.14472577	      1.33612817	     -0.09317425	      1.05967482	      1.33952795	     -0.05722323	      1.04453193	      1.22427049	     -0.02904325	      1.00991681	      1.21968663	     -0.09284647	      1.01373604	      1.49611818	     -0.51865292	      0.95239998	      1.47156651	     -0.46962302	      0.94633065	      1.41704873	     -0.53915297	      0.82458127	      1.37814053	     -0.54086530	      0.82265108	      1.37683683	     -0.46692529	      1.14057741	      1.22449246	     -0.05479381	      1.28480057	      1.19391877	     -0.15178002	      1.27409393	      1.12771391	     -0.14305178	      0.87677185	      1.31779930	     -0.56387936	      1.00250714	      1.16404129	     -0.53462105	      0.94354269	      1.13687572	     -0.55193591
      4.26666700	    -10.76564482	      3.17569270	     -0.45401387	      1.12712119	      1.02148691	     -0.30941386	    -11.85906175	     -0.27408119	      6.22066688	    -22.43160224	    -25.34362727	     55.91858277	      3.54697486	     -4.48215282	    -67.64959455	     -9.45347591	      1.11346778	     -2.88217562	     15.47301532	    -23.26627029	    -11.67319349	     -9.07610737	    110.55980887	     82.02950253	    -57.49648307	    -19.73738169	    -12.39552918	    103.94009904	     89.91131775	      0.00000000	      0.00000000	      0.00000000	      0.00000000	      0.00000000	      0.00000000	      0.00000000	      0.00000000	      1.13648277	      1.03758672	     -0.42106865	      1.12771155	      1.01810526	     -0.18962925	      0.97325015	      1.08781942	     -0.35989086	      0.97202515	      1.08426004	     -0.26067050	      1.01161280	      0.88267294	     -0.13241787	      1.00724683	      0.72499153	     -0.16668164	      0.90923603	      0.67139134	     -0.18069003	      1.13903580	      0.91767994	     -0.49400288	      1.25589928	      0.87692319	     -0.46781054	      1.27326500	      0.73589283	     -0.45946844	      0.82853330	      0.44271643	     -0.23930756	      0.75329907	      0.43223310	     -0.17583002	      0.69738536	      0.31625447	     -0.23680397	      1.37060302	      0.53268617	     -0.40723582	      1.29035318	      0.45375457	     -0.44776263	      1.27984525	      0.35369207	     -0.38254215	      0.53026402	      0.31479586	     -0.24666458	      0.61497091	      0.12705963	     -0.29281497	      0.57988417	      0.10964335	     -0.19188402	      1.12517721	      0.27782979	     -0.36154967	      1.31132892	      0.19010031	     -0.32770398	      1.28624764	      0.15066071	     -0.42609348	      1.08066401	      1.52568972	     -0.48222553	      1.15626353	      1.51432180	     -0.13369031	      1.19051508	      1.46785537	     -0.30455233	      1.07548934	      1.54907352	     -0.30838225	      1.14072347	      1.43314760	     -0.08265079	      1.14633174	      1.34263519	     -0.09323997	      1.06102821	      1.34626899	     -0.05831219	      1.04600535	      1.23061936	     -0.02878382	      1.01007412	      1.22600920	     -0.09231072	      1.01405069	      1.50165975	     -0.51905037	      0.95351853	      1.47677801	     -0.46917713	      0.94504103	      1.42360025	     -0.53890260	      0.82280484	      1.38540745	     -0.53887909	      0.82226005	      1.38389287	     -0.46551203	      1.14150370	      1.23101025	     -0.05642747	      1.28510201	      1.20110035	     -0.15427274	      1.27538020	      1.13490503	     -0.14487668	      0.87448633	      1.32567826	     -0.56324440	      1.00268469	      1.17329583	     -0.53648963	      0.94409833	      1.14509218	     -0.55289668
      4.27500000	    -11.59240339	      2.62649364	     -0.44363916	      1.12657150	      1.02414049	     -0.30898397	    -10.80649513	      0.68506746	      7.71403121	    -25.68726021	    -24.93874741	     55.78778995	      3.15923360	     -3.98064612	    -61.30825994	    -10.61854020	      1.95585994	     -2.55888446	     15.46411994	    -23.42063855	    -11.81192564	     -8.81159072	    110.63809274	     82.57469589	    -58.20881070	    -19.28415187	    -13.44425128	    105.11752244	     89.65680463	      0.00000000	      0.00000000	      0.00000000	      0.00000000	      0.00000000	      0.00000000	      0.00000000	      0.00000000	      1.13616027	      1.04062615	     -0.42066266	      1.12798936	      1.02221650	     -0.18920979	      0.97381411	      1.09246683	     -0.35951740	      0.97276549	      1.08906664	     -0.26010178	      1.01069721	      0.88793517	     -0.13270856	      1.00716514	      0.72860468	     -0.16752646	      0.90998046	      0.67461244	     -0.18207272	      1.13561411	      0.91578716	     -0.49258368	      1.25160074	      0.87508559	     -0.47107332	      1.26730721	      0.73351845	     -0.45590455	      0.82284946	      0.44847521	     -0.24295307	      0.75053414	      0.43993617	     -0.17676161	      0.68551605	      0.32943717	     -0.23736434	      1.37692955	      0.53267496	     -0.40685743	      1.30569268	      0.44639923	     -0.44858191	      1.30344093	      0.34586983	     -0.38299705	      0.51780690	      0.33685943	     -0.24134877	      0.59237819	      0.14599291	     -0.29271155	      0.56049382	      0.12892338	     -0.19082771	      1.15646992	      0.25711112	     -0.36172540	      1.34866727	      0.18465104	     -0.32703212	      1.32662934	      0.14110074	     -0.42488032	      1.08131969	      1.52829835	     -0.48394338	      1.15668925	      1.51868448	     -0.13563352	      1.19078067	      1.47106343	     -0.30610385	      1.07584192	      1.55237670	     -0.31019451	      1.14147952	      1.43856373	     -0.08428085	      1.14744798	      1.34830947	     -0.09335514	      1.06184599	      1.35182987	     -0.05947207	      1.04671545	      1.23611864	     -0.02877900	      1.00936649	      1.23148417	     -0.09195981	      1.01464306	      1.50564180	     -0.52002353	      0.95455166	      1.48054383	     -0.46932542	      0.94435316	      1.42853214	     -0.53900223	      0.82165306	      1.39110735	     -0.53735910	      0.82223758	      1.38915912	     -0.46450827	      1.14185333	      1.23588384	     -0.05766640	      1.28486960	      1.20543585	     -0.15602432	      1.27545331	      1.13932928	     -0.14568562	      0.87302299	      1.33211888	     -0.56298133	      1.00361372	      1.18116452	     -0.53853055	      0.94544966	      1.15188053	     -0.55417171
      4.28333300	    -12.21375501	      1.86263722	     -0.53648840	      1.12572463	      1.02597767	     -0.30811543	     -9.61839992	      2.02827877	      9.25289106	    -29.79525682	    -23.66912593	     55.26845206	      2.49747572	     -3.51054358	    -54.92105407	    -12.12164437	      2.52182905	     -2.03341459	     15.42463683	    -23.55867055	    -11.94865685	     -8.65432076	    110.34671678	     83.20208531	    -58.71356200	    -18.83840293	    -14.39230028	    106.27191891	     89.38781350	      0.00000000	      0.00000000	      0.00000000	      0.00000000	      0.00000000	      0.00000000	      0.00000000	      0.00000000	      1.13583364	      1.04281931	     -0.41988608	      1.12797575	      1.02597933	     -0.18843095	      0.97347263	      1.09603068	     -0.35934060	      0.97304895	      1.09294325	     -0.25963438	      1.01006500	      0.89236104	     -0.13360459	      1.00967405	      0.73088148	     -0.16907850	      0.91331674	      0.67562967	     -0.18314375	      1.13122273	      0.90925632	     -0.48882085	      1.24629316	      0.87139302	     -0.47453068	      1.26101475	      0.73013671	     -0.45364242	      0.81827644	      0.45325353	     -0.24627174	      0.74851690	      0.44747586	     -0.17790227	      0.67426669	      0.34342470	     -0.23776813	      1.38117084	      0.53141313	     -0.40589185	      1.31992901	      0.43868400	     -0.44899586	      1.32556686	      0.33850495	     -0.38328154	      0.50545312	      0.35981225	     -0.23678369	      0.57167368	      0.16737072	     -0.29278649	      0.54240464	      0.14995001	     -0.19002859	      1.18710854	      0.23844727	     -0.36212541	      1.38369601	      0.18003557	     -0.32610876	      1.36488636	      0.13298442	     -0.42370891	      1.08216508	      1.53025943	     -0.48597679	      1.15684746	      1.52209446	     -0.13744652	      1.19105218	      1.47380691	     -0.30765043	      1.07619420	      1.55513398	     -0.31215488	      1.14151582	      1.44279575	     -0.08577472	      1.14793867	      1.35300424	     -0.09358445	      1.06206463	      1.35618677	     -0.06063315	      1.04658673	      1.24079554	     -0.02903556	      1.00802374	      1.23618316	     -0.09192155	      1.01537713	      1.50812999	     -0.52161417	      0.95542028	      1.48304702	     -0.47005428	      0.94424918	      1.43180673	     -0.53953440	      0.82114572	      1.39519884	     -0.53650208	      0.82261356	      1.39261870	     -0.46404008	      1.14161910	      1.23920361	     -0.05833246	      1.28411481	      1.20695941	     -0.15689828	      1.27432869	      1.14100272	     -0.14518318	      0.87249378	      1.33703890	     -0.56316142	      1.00534572	      1.18754279	     -0.54061651	      0.94763815	      1.15716354	     -0.55563438
